<?xml version="1.0" encoding="utf-8"?>
<!-- Generator: Adobe Illustrator 27.9.0, SVG Export Plug-In . SVG Version: 6.00 Build 0)  -->
<svg version="1.1" id="圖層_1" xmlns="http://www.w3.org/2000/svg" xmlns:xlink="http://www.w3.org/1999/xlink" x="0px" y="0px"
	 viewBox="0 0 36 72" style="enable-background:new 0 0 36 72;" xml:space="preserve">
<style type="text/css">
	.st0{fill:#FFFFFF;}
	.st1{fill:#F4EA5A;}
</style>
<path class="st0" d="M18.3,34c6.2,0,11.2-5,11.2-11.2c0-1.3-0.3-2.5-0.7-3.7c-2.5,2.5-4.4,3.7-5.7,3.7C29,12.4,25.8,8,16.8,2
	c0.7,7.4-4.2,10.8-6.2,12.7c-2.2,2-3.5,4.9-3.5,8.1C7.2,29,12.2,34,18.3,34z M19.4,7.6c4.8,4.1,4.8,7.3,1.1,13.8
	c-1.1,2,0.3,4.5,2.6,4.5c1,0,2.1-0.3,3.2-0.9c-0.9,3.5-4.1,6.1-7.9,6.1c-4.5,0-8.2-3.7-8.2-8.2c0-2.3,0.9-4.4,2.6-6
	c0.2-0.2,1.1-1,1.2-1.1c0.6-0.6,1.2-1.1,1.7-1.6C17.4,12.2,18.7,10.1,19.4,7.6z"/>
<path class="st1" d="M18.3,70c6.2,0,11.2-5,11.2-11.2c0-1.3-0.3-2.5-0.7-3.7c-2.5,2.5-4.4,3.7-5.7,3.7C29,48.4,25.8,44,16.8,38
	c0.7,7.4-4.2,10.8-6.2,12.7c-2.2,2-3.5,4.9-3.5,8.1C7.2,65,12.2,70,18.3,70z M19.4,43.6c4.8,4.1,4.8,7.3,1.1,13.8
	c-1.1,2,0.3,4.5,2.6,4.5c1,0,2.1-0.3,3.2-0.9c-0.9,3.5-4.1,6.1-7.9,6.1c-4.5,0-8.2-3.7-8.2-8.2c0-2.3,0.9-4.4,2.6-6
	c0.2-0.2,1.1-1,1.2-1.1c0.6-0.6,1.2-1.1,1.7-1.6C17.4,48.2,18.7,46.1,19.4,43.6z"/>
</svg>
