<?xml version="1.0" encoding="utf-8"?>
<!-- Generator: Adobe Illustrator 27.9.0, SVG Export Plug-In . SVG Version: 6.00 Build 0)  -->
<svg version="1.1" id="圖層_1" xmlns="http://www.w3.org/2000/svg" xmlns:xlink="http://www.w3.org/1999/xlink" x="0px" y="0px"
	 viewBox="0 0 36 72" style="enable-background:new 0 0 36 72;" xml:space="preserve">
<style type="text/css">
	.st0{fill:#FFFFFF;}
	.st1{fill:#F4EA5A;}
</style>
<path class="st0" d="M13.2,2.7v3.4c-4.7,1.9-8,6.5-8,11.9c0,7.1,5.7,12.8,12.8,12.8c5.4,0,10-3.3,11.9-8h3.4
	C31.2,29.3,25.2,34,18,34C9.2,34,2,26.8,2,18C2,10.8,6.7,4.8,13.2,2.7z M18,2c8.8,0,16,7.2,16,16c0,0.5,0,1.1-0.1,1.6H16.4V2.1
	C16.9,2,17.5,2,18,2z M19.6,5.3v11.1h11.1C30,10.6,25.4,6,19.6,5.3z"/>
<path class="st1" d="M13.2,38.7v3.4c-4.7,1.9-8,6.5-8,11.9c0,7.1,5.7,12.8,12.8,12.8c5.4,0,10-3.3,11.9-8h3.4
	C31.2,65.3,25.2,70,18,70C9.2,70,2,62.8,2,54C2,46.8,6.7,40.8,13.2,38.7z M18,38c8.8,0,16,7.2,16,16c0,0.5,0,1.1-0.1,1.6H16.4V38.1
	C16.9,38,17.5,38,18,38z M19.6,41.3v11.1h11.1C30,46.6,25.4,42,19.6,41.3z"/>
</svg>
