<?xml version="1.0" encoding="utf-8"?>
<!-- Generator: Adobe Illustrator 27.9.0, SVG Export Plug-In . SVG Version: 6.00 Build 0)  -->
<svg version="1.1" id="圖層_1" xmlns="http://www.w3.org/2000/svg" xmlns:xlink="http://www.w3.org/1999/xlink" x="0px" y="0px"
	 viewBox="0 0 36 72" style="enable-background:new 0 0 36 72;" xml:space="preserve">
<style type="text/css">
	.st0{fill:#FFFFFF;}
	.st1{fill:#F4EA5A;}
</style>
<path class="st0" d="M18,34C9.2,34,2,26.8,2,18C2,9.2,9.2,2,18,2c8.8,0,16,7.2,16,16C34,26.8,26.8,34,18,34z M18,30.8
	c7.1,0,12.8-5.7,12.8-12.8c0-7.1-5.7-12.8-12.8-12.8C10.9,5.2,5.2,10.9,5.2,18C5.2,25.1,10.9,30.8,18,30.8z M10,18h3.2
	c0,2.7,2.1,4.8,4.8,4.8s4.8-2.1,4.8-4.8H26c0,4.4-3.6,8-8,8C13.6,26,10,22.4,10,18z"/>
<path class="st1" d="M18,70C9.2,70,2,62.8,2,54c0-8.8,7.2-16,16-16c8.8,0,16,7.2,16,16C34,62.8,26.8,70,18,70z M18,66.8
	c7.1,0,12.8-5.7,12.8-12.8c0-7.1-5.7-12.8-12.8-12.8c-7.1,0-12.8,5.7-12.8,12.8C5.2,61.1,10.9,66.8,18,66.8z M10,54h3.2
	c0,2.7,2.1,4.8,4.8,4.8s4.8-2.1,4.8-4.8H26c0,4.4-3.6,8-8,8C13.6,62,10,58.4,10,54z"/>
</svg>
